<svg width="170" height="170" viewBox="0 0 170 170" fill="none" xmlns="http://www.w3.org/2000/svg">
<path fill-rule="evenodd" clip-rule="evenodd" d="M0 5.96875C0 4.46862 0.595925 3.02993 1.65668 1.96918C2.71743 0.908424 4.15612 0.3125 5.65625 0.3125H22.625C23.8867 0.312849 25.1121 0.73503 26.1062 1.5119C27.1004 2.28878 27.8062 3.37574 28.1116 4.59994L32.6931 22.9375H164.031C164.868 22.938 165.694 23.124 166.45 23.4822C167.206 23.8404 167.873 24.3618 168.403 25.0088C168.933 25.6558 169.313 26.4124 169.516 27.224C169.718 28.0357 169.738 28.8821 169.574 29.7024L158.262 86.2649C158.014 87.4983 157.363 88.614 156.41 89.4356C155.457 90.2572 154.258 90.7377 153.002 90.8012L46.698 96.1407L49.9447 113.438H147.062C148.563 113.438 150.001 114.033 151.062 115.094C152.123 116.155 152.719 117.594 152.719 119.094C152.719 120.594 152.123 122.033 151.062 123.093C150.001 124.154 148.563 124.75 147.062 124.75H45.25C43.9313 124.749 42.6545 124.287 41.6403 123.444C40.6261 122.601 39.9382 121.431 39.6956 120.134L22.7381 29.8042L18.2131 11.625H5.65625C4.15612 11.625 2.71743 11.0291 1.65668 9.96832C0.595925 8.90757 0 7.46888 0 5.96875ZM35.0914 34.25L44.5939 84.9187L148.035 79.7263L157.131 34.25H35.0914ZM56.5625 124.75C50.562 124.75 44.8072 127.134 40.5642 131.377C36.3212 135.62 33.9375 141.374 33.9375 147.375C33.9375 153.376 36.3212 159.13 40.5642 163.373C44.8072 167.616 50.562 170 56.5625 170C62.563 170 68.3178 167.616 72.5608 163.373C76.8038 159.13 79.1875 153.376 79.1875 147.375C79.1875 141.374 76.8038 135.62 72.5608 131.377C68.3178 127.134 62.563 124.75 56.5625 124.75ZM135.75 124.75C129.749 124.75 123.995 127.134 119.752 131.377C115.509 135.62 113.125 141.374 113.125 147.375C113.125 153.376 115.509 159.13 119.752 163.373C123.995 167.616 129.749 170 135.75 170C141.751 170 147.505 167.616 151.748 163.373C155.991 159.13 158.375 153.376 158.375 147.375C158.375 141.374 155.991 135.62 151.748 131.377C147.505 127.134 141.751 124.75 135.75 124.75ZM56.5625 136.062C53.5622 136.062 50.6849 137.254 48.5634 139.376C46.4419 141.497 45.25 144.375 45.25 147.375C45.25 150.375 46.4419 153.253 48.5634 155.374C50.6849 157.496 53.5622 158.688 56.5625 158.688C59.5628 158.688 62.4401 157.496 64.5616 155.374C66.6832 153.253 67.875 150.375 67.875 147.375C67.875 144.375 66.6832 141.497 64.5616 139.376C62.4401 137.254 59.5628 136.062 56.5625 136.062ZM135.75 136.062C132.75 136.062 129.872 137.254 127.751 139.376C125.629 141.497 124.438 144.375 124.438 147.375C124.438 150.375 125.629 153.253 127.751 155.374C129.872 157.496 132.75 158.688 135.75 158.688C138.75 158.688 141.628 157.496 143.749 155.374C145.871 153.253 147.062 150.375 147.062 147.375C147.062 144.375 145.871 141.497 143.749 139.376C141.628 137.254 138.75 136.062 135.75 136.062Z" fill="#DEE2E6"/>
</svg>
